<?xml version="1.0" encoding="utf-8"?>
<!-- Generator: Adobe Illustrator 17.0.0, SVG Export Plug-In . SVG Version: 6.00 Build 0)  -->
<!DOCTYPE svg PUBLIC "-//W3C//DTD SVG 1.1//EN" "http://www.w3.org/Graphics/SVG/1.1/DTD/svg11.dtd">
<svg version="1.1" id="Layer_1" xmlns="http://www.w3.org/2000/svg" xmlns:xlink="http://www.w3.org/1999/xlink" x="0px" y="0px"
	 width="143.59px" height="137.821px" viewBox="0 0 143.59 137.821" enable-background="new 0 0 143.59 137.821"
	 xml:space="preserve">
<g>
	<path fill="#984F26" d="M5.817,40.682c1.67,1.092,4.625,2.248,7.45,2.248c4.11,0,6.037-2.055,6.037-4.624
		c0-2.698-1.605-4.175-5.78-5.716c-5.587-1.991-8.221-5.074-8.221-8.799c0-5.009,4.046-9.119,10.725-9.119
		c3.147,0,5.909,0.899,7.642,1.927l-1.413,4.11c-1.22-0.77-3.467-1.798-6.358-1.798c-3.34,0-5.202,1.927-5.202,4.239
		c0,2.569,1.862,3.725,5.909,5.267c5.394,2.055,8.156,4.752,8.156,9.376c0,5.459-4.239,9.312-11.624,9.312
		c-3.404,0-6.551-0.835-8.734-2.119L5.817,40.682z"/>
	<path fill="#984F26" d="M32.022,23.791c0-3.211-0.065-5.844-0.257-8.413h4.945l0.257,5.009h0.192
		c1.735-2.954,4.625-5.716,9.762-5.716c4.239,0,7.45,2.569,8.799,6.23h0.128c0.963-1.735,2.184-3.083,3.468-4.046
		c1.862-1.413,3.917-2.184,6.871-2.184c4.11,0,10.212,2.697,10.212,13.487v18.303h-5.523V28.865c0-5.972-2.184-9.569-6.744-9.569
		c-3.211,0-5.716,2.377-6.679,5.138c-0.257,0.77-0.45,1.798-0.45,2.825v19.203h-5.523V27.838c0-4.945-2.184-8.542-6.487-8.542
		c-3.532,0-6.101,2.826-7,5.652c-0.321,0.835-0.45,1.798-0.45,2.762v18.753h-5.523V23.791z"/>
	<path fill="#984F26" d="M102.798,46.462l-0.45-3.917h-0.192c-1.735,2.44-5.074,4.624-9.505,4.624c-6.294,0-9.504-4.432-9.504-8.927
		c0-7.514,6.679-11.624,18.688-11.56v-0.642c0-2.569-0.707-7.193-7.064-7.193c-2.89,0-5.909,0.899-8.092,2.312l-1.285-3.725
		c2.569-1.67,6.294-2.762,10.212-2.762c9.504,0,11.816,6.487,11.816,12.716v11.624c0,2.698,0.128,5.33,0.514,7.45H102.798z
		 M101.963,30.599c-6.165-0.128-13.166,0.963-13.166,7c0,3.66,2.441,5.394,5.33,5.394c4.046,0,6.615-2.569,7.515-5.202
		c0.192-0.577,0.321-1.22,0.321-1.798V30.599z"/>
	<path fill="#984F26" d="M116.543,0.864h5.652v45.598h-5.652V0.864z"/>
	<path fill="#984F26" d="M131.699,0.864h5.653v45.598h-5.653V0.864z"/>
	<path fill="#984F26" d="M6.588,77.936h5.652v45.598H6.588V77.936z"/>
	<path fill="#984F26" d="M49.874,107.735c0,11.496-7.963,16.506-15.478,16.506c-8.413,0-14.899-6.165-14.899-15.991
		c0-10.405,6.807-16.506,15.414-16.506C43.838,91.744,49.874,98.23,49.874,107.735z M25.213,108.056
		c0,6.807,3.918,11.946,9.441,11.946c5.394,0,9.441-5.074,9.441-12.074c0-5.267-2.633-11.946-9.312-11.946
		C28.103,95.982,25.213,102.148,25.213,108.056z"/>
	<path fill="#984F26" d="M83.786,92.45c-0.128,2.247-0.257,4.752-0.257,8.542v18.046c0,7.129-1.413,11.496-4.431,14.193
		c-3.018,2.826-7.386,3.725-11.304,3.725c-3.725,0-7.835-0.899-10.34-2.569l1.413-4.303c2.055,1.285,5.267,2.44,9.12,2.44
		c5.779,0,10.018-3.018,10.018-10.853v-3.468h-0.128c-1.734,2.89-5.074,5.202-9.89,5.202c-7.707,0-13.23-6.551-13.23-15.156
		c0-10.533,6.872-16.506,14.001-16.506c5.395,0,8.349,2.825,9.697,5.395h0.128l0.257-4.688H83.786z M77.942,104.716
		c0-0.963-0.065-1.798-0.321-2.569c-1.027-3.275-3.789-5.972-7.899-5.972c-5.395,0-9.248,4.559-9.248,11.753
		c0,6.101,3.083,11.174,9.184,11.174c3.468,0,6.615-2.184,7.835-5.779c0.321-0.963,0.45-2.055,0.45-3.019V104.716z"/>
	<path fill="#984F26" d="M121.036,107.735c0,11.496-7.963,16.506-15.478,16.506c-8.413,0-14.899-6.165-14.899-15.991
		c0-10.405,6.807-16.506,15.414-16.506C115,91.744,121.036,98.23,121.036,107.735z M96.374,108.056
		c0,6.807,3.918,11.946,9.441,11.946c5.394,0,9.441-5.074,9.441-12.074c0-5.267-2.633-11.946-9.312-11.946
		C99.265,95.982,96.374,102.148,96.374,108.056z"/>
</g>
</svg>
