<?xml version="1.0" encoding="utf-8"?>
<!-- Generator: Adobe Illustrator 15.1.0, SVG Export Plug-In . SVG Version: 6.00 Build 0)  -->
<!DOCTYPE svg PUBLIC "-//W3C//DTD SVG 1.1//EN" "http://www.w3.org/Graphics/SVG/1.1/DTD/svg11.dtd">
<svg version="1.1" id="svg2" xmlns:svg="http://www.w3.org/2000/svg"
	 xmlns="http://www.w3.org/2000/svg" xmlns:xlink="http://www.w3.org/1999/xlink" x="0px" y="0px" width="1024px" height="1024px"
	 viewBox="0 0 1024 1024" enable-background="new 0 0 1024 1024" xml:space="preserve">
<g id="layer1">
	<path id="path3284" fill="none" stroke="#000000" stroke-width="16" stroke-linecap="round" stroke-linejoin="round" d="
		M254.286,461.143C124.958,283.808,172.766,22.344,518.571,18.286c346.164-0.594,406.056,277.507,274.286,431.428
		c8.466,81.812,8.707,150.698-54.286,168.572c-25.711,108.095-16.075,176.19-31.429,211.428
		C635.268,956.7,410.902,962.452,340,831.143c-16.354-41.215-2.479-108.675-34.254-219.035
		C261.825,595.22,248.754,542.699,254.286,461.143z M254.286,238.286c-17.6,40.734-9.163,66.779,7.429,110.143
		c10.364,26.904-2.211,80.81-7.429,112.714 M797.143,238.286c12.294,25.793,10.013,51.564-7,104
		c-11.59,30.476,0.103,76.952,2.715,107.428 M394.536,693.857C384,658.654,342,623.45,305.746,612.107 M655.339,691.982
		c16.621-41.975,39.137-71.995,83.232-73.696"/>
	<path id="path3289" fill="none" stroke="#000000" stroke-width="8" stroke-linecap="round" stroke-linejoin="round" d="M340,626
		c21.012,47.929,32.251,99.767,40,153c48.141,60.938,214.105,78.92,285-3c4.806-50.91,22.644-100.373,39-150l-48.661,65.982
		c-5.708,41.231-253.338,38.596-260.803,1.875L340,626z M403.5,798v-92 M432,815l1-101 M462.5,822l0.5-103 M492.5,827.5
		c0-2,0.5-106,0.5-106 M523.5,831L523,722.5 M554.5,827L554,722 M583,822.5L582,719 M615.5,810.5L614,715 M644,794l-1-88.5
		 M642,750.5c-81.572,35.536-154.091,38.055-238,0"/>
	<path id="path3287" d="M309.25,417.75c-5.69,20.929-1.791,47.675,5.75,71.25c9.442,29.558,30.897,47.103,67,50
		c41.699,1.055,68.262-23.119,86-62c4.906-11.729,7.983-31.345,3-53c-2.929-11.018-16.774-27.369-30.25-35.75
		C416.109,373.469,318.794,381.838,309.25,417.75z M739.787,415.079c5.69,20.929,1.791,47.676-5.75,71.25
		c-9.441,29.558-30.896,47.103-67,50c-41.699,1.055-68.262-23.119-86-62c-4.905-11.729-7.982-31.345-3-53
		c2.929-11.018,16.774-27.369,30.25-35.75C632.928,370.798,730.243,379.167,739.787,415.079z M513.5,512v118
		c-17.453,26.545-23.559,28.549-33.5,28c-13.094,0.047-21.925-19.537-19.5-42C466.917,544.797,488.519,530.135,513.5,512z
		 M531.3,512.464v118c17.453,26.545,23.559,28.55,33.5,28c13.093,0.047,21.925-19.537,19.5-42
		C577.882,545.261,556.281,530.6,531.3,512.464z"/>
</g>
</svg>
